<svg width="81" height="80" viewBox="0 0 81 80" fill="none" xmlns="http://www.w3.org/2000/svg">
<path d="M63 70H17.9976C17.3345 70 16.6986 69.7366 16.2298 69.2678C15.7609 68.7989 15.4976 68.1631 15.4976 67.5V12.5C15.4976 11.837 15.7609 11.2011 16.2298 10.7322C16.6986 10.2634 17.3345 10 17.9976 10H48L65.5 27.5V67.5C65.5 67.8283 65.4353 68.1534 65.3097 68.4567C65.1841 68.76 64.9999 69.0356 64.7678 69.2678C64.5356 69.4999 64.26 69.6841 63.9567 69.8097C63.6534 69.9354 63.3283 70 63 70Z" stroke="#363B47" stroke-width="1.5" stroke-linecap="round" stroke-linejoin="round"/>
<path d="M48 10V27.5H65.5025" stroke="#363B47" stroke-width="1.5" stroke-linecap="round" stroke-linejoin="round"/>
<path d="M30.5 42.5H50.5" stroke="#363B47" stroke-width="1.5" stroke-linecap="round" stroke-linejoin="round"/>
<path d="M30.5 52.5H50.5" stroke="#363B47" stroke-width="1.5" stroke-linecap="round" stroke-linejoin="round"/>
</svg>
