<svg width="48" height="48" viewBox="0 0 48 48" fill="none" xmlns="http://www.w3.org/2000/svg">
<circle cx="24" cy="24" r="24" fill="#363B47"/>
<path d="M32.5815 23.3456L16.7457 14.4776C16.6125 14.403 16.4597 14.3708 16.3077 14.3854C16.1557 14.4 16.0118 14.4606 15.8952 14.5591C15.7785 14.6577 15.6948 14.7895 15.6551 14.9369C15.6154 15.0844 15.6216 15.2404 15.673 15.3842L18.6599 23.7477C18.7182 23.9109 18.7182 24.0891 18.6599 24.2522L15.673 32.6158C15.6216 32.7596 15.6154 32.9156 15.6551 33.063C15.6948 33.2105 15.7785 33.3423 15.8952 33.4408C16.0118 33.5394 16.1557 33.6 16.3077 33.6146C16.4597 33.6292 16.6125 33.597 16.7457 33.5224L32.5815 24.6544C32.6978 24.5892 32.7947 24.4943 32.8621 24.3792C32.9295 24.2642 32.965 24.1333 32.965 24C32.965 23.8667 32.9295 23.7358 32.8621 23.6207C32.7947 23.5057 32.6978 23.4108 32.5815 23.3456V23.3456Z" stroke="#F5F7FA" stroke-width="1.5" stroke-linecap="round" stroke-linejoin="round"/>
<path d="M18.75 24H24.75" stroke="#F5F7FA" stroke-width="1.5" stroke-linecap="round" stroke-linejoin="round"/>
</svg>
